<svg xmlns="http://www.w3.org/2000/svg" viewBox="0 0 100 100">
  <!-- Background Circle -->
  <circle cx="50" cy="50" r="45" fill="#0a1a2a"/>
  
  <defs>
    <linearGradient id="diamondGrad" x1="0%" y1="0%" x2="100%" y2="100%">
      <stop offset="0%" style="stop-color:#e6f3ff"/>
      <stop offset="50%" style="stop-color:#99ccff"/>
      <stop offset="100%" style="stop-color:#80bfff"/>
    </linearGradient>
    
    <filter id="diamondGlow">
      <feGaussianBlur stdDeviation="2" result="coloredBlur"/>
      <feMerge>
        <feMergeNode in="coloredBlur"/>
        <feMergeNode in="SourceGraphic"/>
      </feMerge>
    </filter>
  </defs>
  
  <!-- Diamond Complex Shape -->
  <path d="M50 15
           L70 40
           L50 85
           L30 40 Z" 
        fill="url(#diamondGrad)" 
        filter="url(#diamondGlow)"/>
  
  <!-- Inner Facets -->
  <path d="M50 15
           L70 40
           L50 85 Z" 
        fill="#ffffff" 
        opacity="0.3"/>
  
  <!-- Diamond Cut Lines -->
  <path d="M50 15 L70 40 M50 15 L30 40 M30 40 L50 85 M70 40 L50 85" 
        stroke="#ffffff" 
        stroke-width="0.5" 
        opacity="0.5"/>
  
  <!-- Inner Cut Lines -->
  <path d="M50 15 L50 85 M40 35 L60 35" 
        stroke="#ffffff" 
        stroke-width="0.5" 
        opacity="0.3"/>
  
  <!-- Sparkles -->
  <circle cx="45" cy="30" r="1.5" fill="white" opacity="0.9"/>
  <circle cx="55" cy="35" r="1" fill="white" opacity="0.7"/>
  <circle cx="50" cy="40" r="1.2" fill="white" opacity="0.8"/>
  <circle cx="45" cy="45" r="1" fill="white" opacity="0.6"/>
  <circle cx="55" cy="50" r="1.3" fill="white" opacity="0.7"/>
  <circle cx="50" cy="55" r="1.1" fill="white" opacity="0.5"/>
  
  <!-- Original Outer Rings -->
  <circle cx="50" cy="50" r="45" fill="none" stroke="#80b3ff" stroke-width="2"/>
  <circle cx="50" cy="50" r="42" fill="none" stroke="#cce0ff" stroke-width="1"/>
</svg>