<svg xmlns="http://www.w3.org/2000/svg" viewBox="0 0 100 100">
  <!-- Background Circle -->
  <circle cx="50" cy="50" r="45" fill="#2a0a0a"/>
  
  <defs>
    <linearGradient id="rubyGrad" x1="0%" y1="0%" x2="100%" y2="100%">
      <stop offset="0%" style="stop-color:#ff3333"/>
      <stop offset="50%" style="stop-color:#e60000"/>
      <stop offset="100%" style="stop-color:#cc0000"/>
    </linearGradient>
    
    <filter id="rubyGlow">
      <feGaussianBlur stdDeviation="2" result="coloredBlur"/>
      <feMerge>
        <feMergeNode in="coloredBlur"/>
        <feMergeNode in="SourceGraphic"/>
      </feMerge>
    </filter>
  </defs>
  
  <!-- Ruby Crown Shape -->
  <path d="M50 15
           L65 35
           L60 75
           L50 85
           L40 75
           L35 35 Z" 
        fill="url(#rubyGrad)" 
        filter="url(#rubyGlow)"/>
  
  <!-- Inner Facets -->
  <path d="M50 20
           L60 38
           L55 72
           L50 80
           L45 72
           L40 38 Z" 
        fill="#ff4d4d" 
        opacity="0.3"/>
  
  <!-- Cut Lines -->
  <path d="M50 15 L65 35 M50 15 L35 35" 
        stroke="#ff9999" 
        stroke-width="0.5" 
        opacity="0.5"/>
  
  <!-- Sparkles -->
  <circle cx="45" cy="30" r="1.5" fill="white" opacity="0.9"/>
  <circle cx="55" cy="35" r="1" fill="white" opacity="0.7"/>
  <circle cx="50" cy="40" r="1.2" fill="white" opacity="0.8"/>
  <circle cx="47" cy="45" r="1" fill="white" opacity="0.6"/>
  <circle cx="53" cy="50" r="1.3" fill="white" opacity="0.7"/>
  
  <!-- Original Outer Rings -->
  <circle cx="50" cy="50" r="45" fill="none" stroke="#ff4d4d" stroke-width="2"/>
  <circle cx="50" cy="50" r="42" fill="none" stroke="#ff8080" stroke-width="1"/>
</svg>